<svg width="2385" height="1655" viewBox="0 0 2385 1655" fill="none" xmlns="http://www.w3.org/2000/svg">
<path d="M2224.81 0.00252295C2224.48 0.000840974 2224.15 -1.66893e-06 2223.82 -1.66893e-06V0.0100064C2192.74 0.326324 2165.06 8.19659 2141.74 20.8466C2118.34 33.7604 2099.31 50.4005 2086 72.5961C2072.69 94.3881 2064.5 120.096 2063 147.096H2124C2128.17 94.9524 2171.77 57.3403 2223.82 57.0961C2275.28 57.2968 2323.11 93.7886 2323.11 148.096C2322.29 187.578 2292.31 216.356 2267.17 243.837L2063 459.096H2148L2316 282.8C2351.3 241.535 2385 204.664 2385 148C2384.35 120.992 2376.24 95.3027 2362.93 73.5106C2349.61 51.315 2331.25 33.7603 2307.85 20.8465C2284.53 8.19649 2256.85 0.326225 2225.77 0.00990725V9.75132e-05C2225.45 9.75132e-05 2225.13 0.00090701 2224.81 0.00252295Z" fill="black"/>
<path d="M2240 386L2171 459.096L2385 459V386H2240Z" fill="black"/>
<path d="M264 1654.09V1461.09H457V1654.09H264Z" fill="#FFCC00"/>
<path d="M1156.5 1653.99H995V1460.99L1156.5 1653.99Z" fill="black"/>
<path d="M1197 1653.59L230 513.49V1654.09H0V1.08606L1030 1217.99V198.086H1542.25C1646.5 198.086 1744.5 267.99 1770 363.086H1197V1653.59Z" fill="black"/>
<path d="M828 2.08606V930L995 1129.99V162.99H1542.25C1700.15 162.99 1814 281.473 1814 434.586C1814 507.251 1774.72 591.35 1724.7 631.11C1676.04 669.499 1611.76 689.086 1532 689.086H1232V857.086H1532C1703.41 857.086 1926.72 933.295 1935.86 1137.35C1945.5 1241.09 1887.07 1331.95 1824.76 1378.06C1741.28 1442.12 1639.37 1461.09 1536.65 1461.09L1232 1460.99V1653.99L1551 1654.09C1688.89 1654.09 1802.92 1629.71 1894.63 1574.37C2100.45 1450.19 2204.55 1183.6 2082.78 963.177C2030.51 868.576 1949.18 800.33 1850.5 755.086C1901.87 719.439 1942.35 674.35 1972.09 619.509C2003.18 563.297 2018.73 501.601 2018.73 434.42C2018.73 375.466 2003.86 313.084 1974.12 247.275C1944.38 180.095 1895.04 123.197 1826.09 76.5818C1758.5 29.9669 1664.26 2.08606 1548 2.08606H828Z" fill="black"/>
<path d="M2224.81 0.00252295C2224.48 0.000840974 2224.15 -1.66893e-06 2223.82 -1.66893e-06V0.0100064C2192.74 0.326324 2165.06 8.19659 2141.74 20.8466C2118.34 33.7604 2099.31 50.4005 2086 72.5961C2072.69 94.3881 2064.5 120.096 2063 147.096H2124C2128.17 94.9524 2171.77 57.3403 2223.82 57.0961C2275.28 57.2968 2323.11 93.7886 2323.11 148.096C2322.29 187.578 2292.31 216.356 2267.17 243.837L2063 459.096H2148L2316 282.8C2351.3 241.535 2385 204.664 2385 148C2384.35 120.992 2376.24 95.3027 2362.93 73.5106C2349.61 51.315 2331.25 33.7603 2307.85 20.8465C2284.53 8.19649 2256.85 0.326225 2225.77 0.00990725V9.75132e-05C2225.45 9.75132e-05 2225.13 0.00090701 2224.81 0.00252295Z" fill="black"/>
<path d="M2240 386L2171 459.096L2385 459V386H2240Z" fill="black"/>
<path d="M1156.5 1653.99H995V1460.99L1156.5 1653.99Z" fill="black"/>
<path d="M1197 1653.59L230 513.49V1654.09H0V1.08606L1030 1217.99V198.086H1542.25C1646.5 198.086 1744.5 267.99 1770 363.086H1197V1653.59Z" fill="black"/>
<path d="M828 2.08606V930L995 1129.99V162.99H1542.25C1700.15 162.99 1814 281.473 1814 434.586C1814 507.251 1774.72 591.35 1724.7 631.11C1676.04 669.499 1611.76 689.086 1532 689.086H1232V857.086H1532C1703.41 857.086 1926.72 933.295 1935.86 1137.35C1945.5 1241.09 1887.07 1331.95 1824.76 1378.06C1741.28 1442.12 1639.37 1461.09 1536.65 1461.09L1232 1460.99V1653.99L1551 1654.09C1688.89 1654.09 1802.92 1629.71 1894.63 1574.37C2100.45 1450.19 2204.55 1183.6 2082.78 963.177C2030.51 868.576 1949.18 800.33 1850.5 755.086C1901.87 719.439 1942.35 674.35 1972.09 619.509C2003.18 563.297 2018.73 501.601 2018.73 434.42C2018.73 375.466 2003.86 313.084 1974.12 247.275C1944.38 180.095 1895.04 123.197 1826.09 76.5818C1758.5 29.9669 1664.26 2.08606 1548 2.08606H828Z" fill="black"/>
</svg>
