<svg width="4616" height="4616" viewBox="0 0 4616 4616" fill="none" xmlns="http://www.w3.org/2000/svg">
<rect width="4616" height="4616" fill="white"/>
<path d="M1505 3134V2941H1698V3134H1505Z" fill="#FFCC00"/>
<path d="M2397.5 3133.9H2236V2940.9L2397.5 3133.9Z" fill="black"/>
<path d="M2438 3133.5L1471 1993.4V3134H1241V1481L2271 2697.9V1678H2783.25C2887.5 1678 2985.5 1747.9 3011 1843H2438V3133.5Z" fill="black"/>
<path d="M2006 1482V2337.4L2236 2609.9V1642.9H2783.25C2941.15 1642.9 3055 1761.39 3055 1914.5C3055 1987.16 3015.72 2071.26 2965.7 2111.02C2917.04 2149.41 2852.76 2169 2773 2169H2473V2337H2773C2944.41 2337 3167.72 2413.21 3176.86 2617.26C3186.5 2721 3128.07 2811.87 3065.76 2857.97C2982.28 2922.03 2880.37 2941 2777.65 2941L2473 2940.9V3133.9L2792 3134C2929.89 3134 3043.92 3109.62 3135.63 3054.29C3341.45 2930.11 3445.55 2663.52 3323.78 2443.09C3271.51 2348.49 3190.18 2280.24 3091.5 2235C3142.87 2199.35 3183.35 2154.26 3213.09 2099.42C3244.18 2043.21 3259.73 1981.51 3259.73 1914.33C3259.73 1855.38 3244.86 1793 3215.12 1727.19C3185.38 1660.01 3136.04 1603.11 3067.09 1556.5C2999.5 1509.88 2905.26 1482 2789 1482H2006Z" fill="black"/>
<path d="M2397.5 3133.9H2236V2940.9L2397.5 3133.9Z" fill="black"/>
<path d="M2438 3133.5L1471 1993.4V3134H1241V1481L2271 2697.9V1678H2783.25C2887.5 1678 2985.5 1747.9 3011 1843H2438V3133.5Z" fill="black"/>
<path d="M2006 1482V2337.4L2236 2609.9V1642.9H2783.25C2941.15 1642.9 3055 1761.39 3055 1914.5C3055 1987.16 3015.72 2071.26 2965.7 2111.02C2917.04 2149.41 2852.76 2169 2773 2169H2473V2337H2773C2944.41 2337 3167.72 2413.21 3176.86 2617.26C3186.5 2721 3128.07 2811.87 3065.76 2857.97C2982.28 2922.03 2880.37 2941 2777.65 2941L2473 2940.9V3133.9L2792 3134C2929.89 3134 3043.92 3109.62 3135.63 3054.29C3341.45 2930.11 3445.55 2663.52 3323.78 2443.09C3271.51 2348.49 3190.18 2280.24 3091.5 2235C3142.87 2199.35 3183.35 2154.26 3213.09 2099.42C3244.18 2043.21 3259.73 1981.51 3259.73 1914.33C3259.73 1855.38 3244.86 1793 3215.12 1727.19C3185.38 1660.01 3136.04 1603.11 3067.09 1556.5C2999.5 1509.88 2905.26 1482 2789 1482H2006Z" fill="black"/>
</svg>
